# xmcd
#
# Track frame offsets:
#	150
#	17900
#	31234
#	50391
#	66050
#	87526
#	105644
#	121742
#	138498
#	159075
#	178504
#	195954
#
# Disc length: 2879 seconds
#
# Revision: 0
# Processed by: cddbd v1.5.1PL0 Copyright (c) Steve Scherf et al.
# Submitted via: dBpowerAMP V4.0
#
DISCID=910b3d0c
DTITLE=Clint Black - Nothin' But The Taillights
DYEAR=1900
DGENRE=Country
TTITLE0=Nothin' But The Taillights
TTITLE1=That Something In My Life
TTITLE2=Our Kind Of Love (Feat. Alison Krauss and Union Station)
TTITLE3=Loosen Up my Strings
TTITLE4=Still Holding On (Duet With Martina McBride)
TTITLE5=Something That We Do
TTITLE6=The Shoes You're Wearing
TTITLE7=You Don't Need Me Now
TTITLE8=What I Feel Inside
TTITLE9=You Know It All
TTITLE10=Ode To Chet
TTITLE11=Bitter Side Of Sweet
EXTD=RCA 07863 67515 2
EXTT0=
EXTT1=
EXTT2=
EXTT3=
EXTT4=
EXTT5=
EXTT6=
EXTT7=
EXTT8=
EXTT9=
EXTT10=
EXTT11=
PLAYORDER=
